<svg xmlns="http://www.w3.org/2000/svg" xmlns:xlink="http://www.w3.org/1999/xlink" viewBox="274.787 225.687 100.271 215.845" width="96.27" height="211.85"><defs><path d="M358.23 372.74c4.27 0 7.74 3.45 7.75 7.72l.09 49.53a7.731 7.731 0 0 1-7.72 7.75h-4.53a7.731 7.731 0 0 1-7.75-7.72l-.09-49.52c-.01-4.27 3.45-7.74 7.72-7.75 2.46 0 2.08 0 4.53-.01z" id="a"/><path d="M317.93 359.68a6.119 6.119 0 0 1 3.43 7.93l-26.55 67.06c-1.24 3.14-4.79 4.67-7.93 3.43l-7.23-2.86c-3.14-1.24-4.67-4.8-3.43-7.93 5.76-14.55 20.78-52.51 26.54-67.06a6.122 6.122 0 0 1 7.94-3.43c2.58 1.02 4.64 1.84 7.23 2.86z" id="b"/><path d="M318.13 352.81a6.546 6.546 0 0 1 9.03-2.05c8.19 5.16 27.25 17.18 35.45 22.34a6.546 6.546 0 0 1 2.05 9.03c-1.43 2.28-2.25 3.57-3.68 5.84a6.546 6.546 0 0 1-9.03 2.05c-8.2-5.16-27.26-17.18-35.45-22.34a6.546 6.546 0 0 1-2.05-9.03c1.43-2.28 2.24-3.57 3.68-5.84z" id="c"/><path d="M338.26 271.99c3.28.4 5.62 3.38 5.22 6.66-2.16 17.81-7.9 65.3-10.06 83.11a5.969 5.969 0 0 1-6.65 5.22c-4.77-.58-13.14-1.59-17.91-2.17-3.28-.4-5.62-3.37-5.22-6.65 2.15-17.81 7.9-65.31 10.06-83.12.39-3.28 3.37-5.61 6.65-5.22 4.77.58 13.14 1.59 17.91 2.17z" id="d"/><path d="M353.8 247.44c0 11.46-8.96 20.76-20 20.76s-20-9.3-20-20.76c0-11.45 8.96-20.75 20-20.75s20 9.3 20 20.75z" id="e"/><path d="M368.91 326.75a6.34 6.34 0 0 1 2.28 8.68c-1.22 2.09-1.68 2.89-2.9 4.98-1.77 3.02-5.65 4.05-8.67 2.28-8.41-4.9-28.15-16.42-36.56-21.32a6.358 6.358 0 0 1-2.28-8.68c1.22-2.09 1.69-2.89 2.91-4.98 1.76-3.02 5.64-4.04 8.67-2.28 8.4 4.9 28.14 16.42 36.55 21.32z" id="f"/><path d="M327.29 280.36a6.272 6.272 0 0 1-1.05 8.82c-5.88 4.63-18.58 14.63-24.47 19.26-2.72 2.14-6.67 1.67-8.82-1.05-1.7-2.16-2.9-3.69-4.6-5.84a6.295 6.295 0 0 1 1.06-8.83c5.88-4.62 18.58-14.62 24.46-19.25a6.303 6.303 0 0 1 8.83 1.05c1.69 2.16 2.9 3.68 4.59 5.84z" id="g"/><path d="M295.92 291.09c4.72.51 8.14 4.76 7.62 9.49-1.14 10.58-3.66 33.77-4.81 44.35a8.613 8.613 0 0 1-9.49 7.63c-1.87-.2 1.09.12-.78-.09-4.72-.51-8.14-4.76-7.63-9.48l4.82-44.36c.51-4.72 4.76-8.14 9.49-7.62 1.86.2-1.09-.12.78.08z" id="h"/></defs><use xlink:href="#a"/><use xlink:href="#b"/><use xlink:href="#c"/><use xlink:href="#d"/><use xlink:href="#e"/><use xlink:href="#f"/><use xlink:href="#g"/><use xlink:href="#h"/></svg>