<svg xmlns="http://www.w3.org/2000/svg" xmlns:xlink="http://www.w3.org/1999/xlink" viewBox="279.218 309.148 80.661 107.021" width="76.66" height="103.02"><defs><path d="M354.83 358.27c1.13 0 2.05.91 2.05 2.05v1.48c0 1.13-.92 2.05-2.05 2.05h-46.5c-1.13 0-2.05-.92-2.05-2.05v-1.48c0-1.14.92-2.05 2.05-2.05h46.5z" id="a"/><path d="M326.12 310.15c1.3 0 2.36 1.05 2.36 2.35v35.29c0 1.3-1.06 2.36-2.36 2.36-.47 0 .47 0 0 0-1.3 0-2.35-1.06-2.35-2.36V312.5c0-1.3 1.05-2.35 2.35-2.35.47 0-.47 0 0 0z" id="b"/><path d="M342.78 355.63c.83 0 1.5.67 1.5 1.5 0 .3 0-.3 0 0 0 .83-.67 1.5-1.5 1.5h-10.75c-.83 0-1.5-.67-1.5-1.5 0-.3 0 .3 0 0 0-.83.67-1.5 1.5-1.5h10.75z" id="c"/><path d="M340.56 355.1c.26.41.14.95-.27 1.22-.35.23-.68.44-1.04.67-.41.26-.95.15-1.22-.26-2.44-3.79-9.29-14.39-11.73-18.17a.875.875 0 0 1 .26-1.22c.36-.23.68-.44 1.04-.67.41-.27.96-.15 1.22.26 2.44 3.78 9.29 14.39 11.74 18.17z" id="d"/><path d="M311.2 361.06c1.08 0 1.96.87 1.96 1.95v48.2c0 1.08-.88 1.96-1.96 1.96h-.63c-1.08 0-1.96-.88-1.96-1.96v-48.2c0-1.08.88-1.95 1.96-1.95h.63z" id="e"/><path d="M352.4 361.06c1.08 0 1.96.87 1.96 1.95v48.2c0 1.08-.88 1.96-1.96 1.96h-.63c-1.08 0-1.96-.88-1.96-1.96v-48.2c0-1.08.88-1.95 1.96-1.95h.63z" id="f"/><path d="M312.14 382.4c1.96 0 3.55 1.58 3.55 3.54 0 .71 0-.71 0 0a3.55 3.55 0 0 1-3.55 3.55h-28.37a3.55 3.55 0 0 1-3.55-3.55c0-.71 0 .71 0 0 0-1.96 1.59-3.54 3.55-3.54h28.37z" id="g"/><path d="M282.75 355.27c1.4 0 2.54 1.13 2.54 2.53v52.84c0 1.39-1.14 2.53-2.54 2.53-.5 0 .51 0 0 0-1.4 0-2.53-1.14-2.53-2.53V357.8c0-1.4 1.13-2.53 2.53-2.53.51 0-.5 0 0 0z" id="h"/><path d="M313.16 383.24c1.4 0 2.53 1.13 2.53 2.53v24.87c0 1.39-1.13 2.53-2.53 2.53-.51 0 .5 0 0 0-1.4 0-2.54-1.14-2.54-2.53v-24.87c0-1.4 1.14-2.53 2.54-2.53.5 0-.51 0 0 0z" id="i"/><path d="M300.57 332.24a2.34 2.34 0 0 1 2.07 2.59c-.93 8.33-3.46 31.01-4.38 39.35a2.36 2.36 0 0 1-2.59 2.07l-7.04-.79a2.337 2.337 0 0 1-2.07-2.58l4.39-39.36a2.33 2.33 0 0 1 2.58-2.06c1.88.21 5.17.57 7.04.78z" id="j"/><path d="M323.98 413.16c-.88.09-1.66-.56-1.75-1.44a44240 44240 0 0 0-3.48-36.18c-.08-.88.56-1.67 1.45-1.75 1.18-.12 3.14-.3 4.32-.42.89-.08 1.67.56 1.76 1.45.72 7.55 2.75 28.62 3.48 36.17.08.89-.57 1.67-1.45 1.76-1.18.11-3.14.3-4.33.41z" id="k"/><path d="M326.12 379.58c0 1.1-.89 1.98-1.98 1.98-7.51 0-28.08 0-35.6.01-1.09 0-1.97-.89-1.97-1.98 0-1.47 0-3.89-.01-5.36 0-1.09.89-1.98 1.98-1.98h35.6c1.09 0 1.98.89 1.98 1.98v5.35z" id="l"/><path d="M306.29 321.71c0 5.01-4.06 9.07-9.06 9.07-5.01 0-9.07-4.06-9.07-9.07 0-5 4.06-9.06 9.07-9.06 5 0 9.06 4.06 9.06 9.06z" id="m"/><path d="M319.49 351.04a2.15 2.15 0 0 1 1.19 2.81c-.37.91-.67 1.66-1.04 2.57a2.154 2.154 0 0 1-2.81 1.19c-5.15-2.08-18.59-7.53-23.74-9.62a2.17 2.17 0 0 1-1.19-2.81c.38-.92.68-1.66 1.05-2.57a2.15 2.15 0 0 1 2.81-1.19c5.15 2.08 18.59 7.53 23.73 9.62z" id="n"/><path d="M322.88 355.76c.76 0 1.37.61 1.37 1.37 0 .27 0-.28 0 0 0 .76-.61 1.37-1.37 1.37h-10.07c-.76 0-1.38-.61-1.38-1.37 0-.28 0 .27 0 0 0-.76.62-1.37 1.38-1.37h10.07z" id="o"/></defs><use xlink:href="#a"/><use xlink:href="#b"/><use xlink:href="#c"/><use xlink:href="#d"/><use xlink:href="#e"/><use xlink:href="#f"/><use xlink:href="#g"/><use xlink:href="#h"/><use xlink:href="#i"/><use xlink:href="#j"/><use xlink:href="#k"/><use xlink:href="#l"/><use xlink:href="#m"/><use xlink:href="#n"/><use xlink:href="#o" fill="#060101"/></svg>